<?xml version="1.0" encoding="utf-8"?>
<!-- Generator: Adobe Illustrator 25.0.0, SVG Export Plug-In . SVG Version: 6.00 Build 0)  -->
<svg version="1.1" id="Capa_1" xmlns="http://www.w3.org/2000/svg" xmlns:xlink="http://www.w3.org/1999/xlink" x="0px" y="0px"
	 viewBox="0 0 62.4 62.4" style="enable-background:new 0 0 62.4 62.4;" xml:space="preserve">
<style type="text/css">
	.st0{fill:#BC842C;stroke:#BC842C;stroke-miterlimit:10;}
	.st1{fill:#BC842C;}
</style>
<g id="Capa_2_1_">
	<g id="Capa_1-2">
		<path class="st0" d="M26.6,49.1H13.9c-6.6,0-9.7-3.5-11.1-6.4c-1-2-1.5-4.1-1.6-6.3V13.3h2.3v23.1c0,0.4,0.2,10.4,10.4,10.4h10.4
			V13.3h2.3V49.1z"/>
		<path class="st0" d="M38.1,49.1H25.4c-6.5,0-9.7-3.5-11.1-6.4c-1-2-1.5-4.1-1.6-6.3V13.3H15v23.1c0,0.4,0.2,10.4,10.4,10.4h10.4
			V13.3h2.3V49.1z"/>
		<path class="st0" d="M61.2,49.1h-2.3V26c0-0.4-0.2-10.4-10.4-10.4H38.1v33.5h-2.3V13.3h12.7c6.5,0,9.7,3.5,11.1,6.4
			c1,2,1.5,4.1,1.6,6.3V49.1z"/>
		<circle class="st1" cx="48.5" cy="24.8" r="2.9"/>
	</g>
</g>
</svg>
