<svg xmlns="http://www.w3.org/2000/svg" viewBox="0 0 61 36.77"><defs><style>.cls-1,.cls-2{fill:#bc842c;}.cls-1{stroke:#bc842c;stroke-miterlimit:10;}</style></defs><g id="Capa_2" data-name="Capa 2"><g id="Capa_1-2" data-name="Capa 1"><path class="cls-1" d="M25.88,36.27H13.19c-6.55,0-9.66-3.48-11.13-6.41A15.54,15.54,0,0,1,.5,23.58V.5H2.81V23.58C2.81,24,3,34,13.19,34H23.58V.5h2.3Z"/><path class="cls-1" d="M37.42,36.27H24.73c-6.55,0-9.67-3.48-11.13-6.41A15.54,15.54,0,0,1,12,23.58V.5h2.31V23.58C14.35,24,14.51,34,24.73,34H35.12V.5h2.3Z"/><path class="cls-1" d="M60.5,36.27H58.19V13.19c0-.42-.16-10.38-10.38-10.38H37.42V36.27h-2.3V.5H47.81C54.36.5,57.47,4,58.94,6.91a15.54,15.54,0,0,1,1.56,6.28Z"/><circle class="cls-2" cx="47.81" cy="12.04" r="2.88"/></g></g></svg>